<svg aria-hidden="true" style="position: absolute; width: 0; height: 0; overflow: hidden;" version="1.1" xmlns="http://www.w3.org/2000/svg" xmlns:xlink="http://www.w3.org/1999/xlink">
  <defs>
    <symbol id="icon-arrow-left" viewBox="0 0 32 32">
      <path d="M8.533 10.132c-0.103 0.056-1.367 1.284-2.809 2.731-2.357 2.364-2.629 2.655-2.684 2.865-0.022 0.081-0.035 0.173-0.035 0.269 0 0.176 0.043 0.342 0.119 0.487l-0.003-0.006c0.039 0.073 1.267 1.327 2.728 2.783 2.575 2.565 2.665 2.649 2.919 2.701 0.090 0.024 0.192 0.038 0.298 0.038 0.008 0 0.015-0 0.023-0l-0.001 0c0.032-0.009 0.124-0.032 0.204-0.049 0.18-0.040 0.5-0.315 0.607-0.521 0.096-0.185 0.108-0.593 0.023-0.816-0.035-0.091-0.801-0.903-1.776-1.88l-1.716-1.72h10.825c7.733 0 10.885-0.017 11.037-0.060 0.283-0.077 0.588-0.391 0.667-0.681 0.119-0.441-0.040-0.851-0.433-1.109l-0.224-0.149-21.871-0.028 1.715-1.719c0.975-0.977 1.741-1.789 1.776-1.88 0.084-0.221 0.073-0.629-0.020-0.811-0.123-0.215-0.306-0.385-0.525-0.489l-0.007-0.003c-0.106-0.034-0.227-0.053-0.354-0.053-0.175 0-0.34 0.037-0.49 0.104l0.008-0.003z"></path>
    </symbol>

    <symbol id="icon-logout" viewBox="0 0 32 32">
      <path d="M9.032 3.465c-1.18 0.312-2.167 1.267-2.535 2.455l-0.124 0.4v19.413l0.145 0.427c0.365 1.079 1.295 1.997 2.361 2.335l0.373 0.119h9.493l0.373-0.119c1.067-0.337 1.997-1.257 2.361-2.335l0.144-0.427 0.017-2.929c0.012-2.163-0.001-2.969-0.047-3.081-0.147-0.353-0.677-0.487-0.981-0.247-0.295 0.231-0.295 0.235-0.295 3.207 0 2.552-0.007 2.761-0.101 3.035-0.289 0.835-1.008 1.451-1.885 1.586l-0.013 0.002c-0.496 0.069-8.144 0.069-8.64 0-0.891-0.137-1.61-0.753-1.894-1.571l-0.005-0.017c-0.099-0.284-0.101-0.604-0.101-9.717s0.003-9.433 0.101-9.717c0.289-0.835 1.008-1.451 1.885-1.586l0.013-0.002c0.496-0.069 8.144-0.069 8.64 0 0.891 0.137 1.61 0.753 1.894 1.571l0.005 0.017c0.095 0.273 0.101 0.483 0.101 3.035 0 2.972 0 2.976 0.295 3.207 0.304 0.24 0.835 0.107 0.981-0.247 0.045-0.112 0.059-0.92 0.047-3.081l-0.016-2.929-0.164-0.46c-0.394-1.080-1.233-1.914-2.29-2.293l-0.026-0.008-0.347-0.119-4.693-0.011c-4.451-0.011-4.713-0.007-5.075 0.089zM24.595 11.495c-0.212 0.179-0.301 0.448-0.225 0.679 0.039 0.117 0.536 0.652 1.524 1.64 0.807 0.807 1.467 1.484 1.467 1.507 0 0.021-3.519 0.040-7.819 0.040h-7.819l-0.181 0.181c-0.16 0.16-0.181 0.215-0.181 0.459s0.021 0.299 0.181 0.459l0.181 0.181h7.819c4.3 0 7.819 0.019 7.819 0.040 0 0.023-0.66 0.7-1.467 1.507-1.559 1.559-1.633 1.656-1.52 1.999 0.096 0.292 0.329 0.455 0.655 0.455h0.273l2.1-2.093c1.155-1.151 2.135-2.159 2.176-2.237 0.044-0.090 0.071-0.196 0.076-0.308l0-0.002c-0.005-0.113-0.032-0.219-0.078-0.314l0.002 0.005c-0.041-0.079-1.021-1.085-2.176-2.237l-2.1-2.093h-0.273c-0.215 0-0.308 0.029-0.433 0.135z"></path>
    </symbol>

    <symbol id="icon-upload" viewBox="0 0 32 32">
      <path d="M12.597 6.467c-1.711 1.709-3.145 3.172-3.188 3.251-0.284 0.535 0.339 1.157 0.873 0.873 0.079-0.043 1.236-1.171 2.571-2.507 1.335-1.337 2.444-2.431 2.467-2.431 0.021 0 0.040 3.723 0.040 8.272 0 7.701 0.007 8.283 0.091 8.425 0.125 0.177 0.321 0.297 0.547 0.316l0.003 0c0.228-0.019 0.425-0.139 0.548-0.314l0.002-0.002c0.084-0.143 0.091-0.724 0.091-8.425 0-4.549 0.019-8.272 0.040-8.272 0.023 0 1.132 1.093 2.467 2.431 1.335 1.336 2.492 2.464 2.571 2.507 0.535 0.284 1.157-0.339 0.873-0.873-0.043-0.079-1.477-1.541-3.188-3.251l-3.112-3.107h-0.581l-3.112 3.107zM3.704 21.416c-0.341 0.168-0.344 0.189-0.344 2.251 0 1.684 0.011 1.903 0.105 2.277 0.165 0.641 0.439 1.107 0.961 1.629s0.988 0.796 1.629 0.961c0.405 0.103 0.612 0.105 9.944 0.105s9.539-0.003 9.944-0.105c0.641-0.165 1.107-0.439 1.629-0.961s0.796-0.988 0.961-1.629c0.095-0.375 0.105-0.593 0.105-2.277 0-2.068-0.003-2.087-0.352-2.252-0.083-0.048-0.182-0.077-0.288-0.077s-0.205 0.029-0.291 0.078l0.003-0.001c-0.343 0.163-0.352 0.216-0.353 1.953 0 0.861-0.025 1.733-0.055 1.939-0.147 1.038-0.959 1.85-1.985 1.996l-0.012 0.001c-0.511 0.073-18.103 0.073-18.613 0-1.038-0.147-1.85-0.959-1.996-1.985l-0.001-0.012c-0.029-0.205-0.055-1.077-0.055-1.939-0.001-1.737-0.011-1.791-0.353-1.953-0.084-0.048-0.184-0.076-0.291-0.076s-0.209 0.029-0.296 0.079l0.003-0.002z"></path>
    </symbol>

    <symbol id="icon-calendar" viewBox="0 0 32 32">
      <path d="M8.81 3.254c-0.121 0.034-0.226 0.091-0.315 0.167l0.001-0.001c-0.258 0.238-0.282 0.378-0.282 1.644v1.175h-0.872c-0.693 0-0.955 0.022-1.282 0.105-1.227 0.314-2.248 1.281-2.667 2.526-0.185 0.55-0.198 1.169-0.181 9.023l0.016 7.733 0.135 0.428c0.202 0.644 0.489 1.113 0.979 1.604 0.502 0.502 1.012 0.807 1.656 0.992l0.429 0.123h19.147l0.429-0.123c0.644-0.185 1.154-0.49 1.656-0.992 0.49-0.491 0.777-0.96 0.979-1.604l0.135-0.428 0.016-7.733c0.017-7.854 0.004-8.474-0.181-9.023-0.417-1.238-1.447-2.213-2.667-2.526-0.326-0.083-0.59-0.105-1.28-0.105h-0.869l-0.016-1.25c-0.015-1.165-0.023-1.259-0.126-1.397-0.274-0.367-0.69-0.465-1.044-0.246-0.351 0.218-0.366 0.287-0.366 1.66v1.232h-12.48v-1.232c0-1.077-0.012-1.251-0.094-1.39-0.145-0.231-0.398-0.381-0.686-0.381-0.061 0-0.12 0.007-0.176 0.019l0.005-0.001zM25.661 7.893c0.191 0.059 0.356 0.13 0.511 0.218l-0.013-0.007c0.331 0.222 0.686 0.624 0.848 0.962l0.166 0.347 0.017 1.24c0.009 0.682 0.005 1.24-0.010 1.24s-0.166-0.082-0.337-0.183c-0.418-0.247-0.872-0.39-1.439-0.455-0.64-0.074-18.166-0.074-18.806-0.001-0.566 0.065-1.069 0.223-1.464 0.462-0.088 0.057-0.192 0.116-0.3 0.169l-0.018 0.008c-0.014 0-0.016-0.558-0.007-1.24 0.017-1.225 0.019-1.244 0.163-1.553 0.266-0.568 0.774-1.025 1.338-1.204 0.321-0.102 0.556-0.104 9.67-0.107 9.174-0.003 9.347-0.001 9.68 0.103zM25.923 12.993c0.473 0.236 0.848 0.611 1.078 1.070l0.006 0.014 0.166 0.35 0.014 5.49c0.013 4.994 0.006 5.514-0.074 5.76-0.233 0.676-0.755 1.199-1.414 1.43l-0.016 0.005c-0.242 0.082-1.042 0.089-9.684 0.089s-9.442-0.007-9.684-0.089c-0.675-0.235-1.196-0.758-1.425-1.418l-0.005-0.016c-0.080-0.245-0.086-0.771-0.074-5.76l0.014-5.491 0.166-0.35c0.187-0.395 0.602-0.845 0.941-1.017 0.522-0.267-0.034-0.254 10.12-0.243l9.52 0.010 0.35 0.166zM15.706 16.289c-0.518 0.23-0.638 0.86-0.24 1.258 0.309 0.309 0.762 0.318 1.072 0.022 0.304-0.291 0.33-0.723 0.062-1.041-0.243-0.29-0.578-0.379-0.894-0.239zM18.668 16.306c-0.546 0.274-0.577 1.104-0.051 1.375 0.22 0.114 0.591 0.111 0.789-0.006s0.381-0.436 0.381-0.662c0-0.266-0.199-0.571-0.453-0.694-0.271-0.131-0.426-0.134-0.666-0.014zM21.655 16.334c-0.722 0.37-0.47 1.435 0.339 1.435 0.832 0 1.090-1.065 0.353-1.457-0.244-0.13-0.407-0.125-0.692 0.022zM9.823 19.254c-0.315 0.072-0.597 0.423-0.597 0.745 0 0.777 0.994 1.079 1.426 0.433 0.381-0.57-0.155-1.332-0.829-1.178zM12.809 19.254c-0.399 0.091-0.669 0.558-0.55 0.952 0.177 0.59 0.89 0.771 1.31 0.333 0.529-0.552-0.006-1.458-0.759-1.285zM15.76 19.282c-0.714 0.246-0.688 1.257 0.038 1.474 0.577 0.173 1.146-0.418 0.946-0.983-0.086-0.246-0.368-0.492-0.61-0.535-0.088-0.016-0.256 0.004-0.374 0.045zM18.817 19.254c-0.349 0.1-0.576 0.39-0.577 0.735-0.001 0.585 0.502 0.938 1.042 0.733 0.449-0.172 0.645-0.719 0.39-1.091-0.225-0.327-0.541-0.466-0.854-0.377zM21.823 19.254c-0.315 0.072-0.597 0.423-0.597 0.745 0 0.777 0.994 1.079 1.426 0.433 0.381-0.57-0.155-1.332-0.829-1.178zM9.613 22.343c-0.273 0.171-0.396 0.41-0.37 0.714 0.026 0.301 0.159 0.506 0.414 0.636 0.102 0.055 0.224 0.087 0.353 0.087 0.28 0 0.524-0.151 0.655-0.377l0.002-0.004c0.192-0.316 0.12-0.714-0.182-0.996-0.195-0.182-0.632-0.213-0.873-0.062zM12.582 22.361c-0.828 0.554-0.066 1.802 0.802 1.314 0.231-0.121 0.385-0.359 0.385-0.634 0-0.011-0-0.021-0.001-0.032l0 0.002c0-0.619-0.678-0.99-1.187-0.65zM15.606 22.342c-0.223 0.143-0.368 0.389-0.368 0.669 0 0.26 0.126 0.491 0.32 0.636l0.002 0.002c0.075 0.056 0.247 0.111 0.382 0.123 0.654 0.057 1.074-0.684 0.692-1.221-0.222-0.311-0.719-0.412-1.028-0.209zM18.694 22.291c-0.059 0.024-0.179 0.121-0.267 0.214-0.143 0.151-0.16 0.204-0.16 0.508 0 0.287 0.020 0.36 0.134 0.482 0.28 0.299 0.62 0.37 0.956 0.199 0.531-0.271 0.566-0.997 0.062-1.333-0.125-0.074-0.277-0.118-0.438-0.118-0.103 0-0.201 0.018-0.293 0.051l0.006-0.002z"></path>
    </symbol>

    <symbol id="icon-chevron-down" viewBox="0 0 32 32">
      <path d="M25.653 10.057c-0.121 0.052-1.851 1.744-4.92 4.811l-4.733 4.732-4.707-4.705c-3.315-3.312-4.765-4.728-4.905-4.787-0.493-0.203-1.040 0.025-1.273 0.532-0.115 0.247-0.124 0.396-0.043 0.693 0.049 0.184 0.745 0.904 5.132 5.297 2.792 2.796 5.179 5.144 5.304 5.219 0.14 0.087 0.31 0.139 0.492 0.139s0.352-0.052 0.496-0.141l-0.004 0.002c0.125-0.075 2.523-2.435 5.327-5.245 4.431-4.441 5.105-5.14 5.16-5.331 0.075-0.267 0.076-0.313 0.005-0.565-0.155-0.559-0.803-0.876-1.331-0.651z"></path>
    </symbol>

    <symbol id="icon-settings" viewBox="0 0 32 32">
      <path d="M13.613 3.437c-0.507 0.16-1.016 0.597-1.257 1.081-0.152 0.301-0.204 0.519-0.384 1.609-0.076 0.452-0.163 0.872-0.195 0.933-0.171 0.335-0.805 0.755-1.223 0.809-0.201 0.027-0.364-0.019-1.141-0.311-0.259-0.109-0.643-0.247-1.033-0.371l-0.124-0.034c-0.781-0.193-1.708 0.131-2.173 0.76-0.236 0.32-1.824 3.067-2.020 3.495-0.288 0.628-0.188 1.529 0.229 2.096 0.103 0.137 0.528 0.536 0.947 0.885 0.895 0.747 0.987 0.84 1.056 1.080 0.067 0.235 0.067 0.824 0 1.059-0.069 0.24-0.161 0.333-1.056 1.080-0.419 0.349-0.844 0.748-0.947 0.885-0.417 0.567-0.517 1.468-0.229 2.096 0.196 0.428 1.784 3.175 2.020 3.495 0.465 0.629 1.392 0.953 2.173 0.76 0.139-0.035 0.659-0.216 1.157-0.405 0.777-0.292 0.94-0.337 1.141-0.311 0.417 0.055 1.052 0.475 1.223 0.809 0.032 0.061 0.119 0.481 0.195 0.933 0.075 0.452 0.163 0.941 0.195 1.088 0.141 0.637 0.597 1.203 1.209 1.504l0.304 0.149h4.64l0.304-0.149c0.612-0.301 1.068-0.867 1.209-1.504 0.032-0.147 0.12-0.636 0.195-1.088 0.076-0.452 0.163-0.872 0.195-0.933 0.171-0.335 0.805-0.755 1.223-0.809 0.201-0.027 0.364 0.019 1.141 0.311 0.499 0.189 1.019 0.371 1.157 0.405 0.781 0.193 1.712-0.133 2.171-0.76 0.241-0.332 1.832-3.080 2.021-3.492 0.297-0.648 0.188-1.572-0.251-2.128-0.115-0.144-0.545-0.543-0.957-0.883-0.951-0.788-1.028-0.888-1.063-1.365-0.036-0.515 0.021-0.825 0.191-1.027 0.077-0.092 0.485-0.453 0.904-0.801s0.844-0.747 0.945-0.884c0.423-0.581 0.52-1.465 0.232-2.096-0.196-0.428-1.784-3.175-2.020-3.495-0.465-0.629-1.392-0.953-2.173-0.76-0.139 0.035-0.659 0.216-1.157 0.405-0.777 0.292-0.94 0.337-1.141 0.311-0.417-0.055-1.052-0.475-1.223-0.809-0.032-0.061-0.119-0.481-0.195-0.933-0.088-0.564-0.156-0.933-0.23-1.3l0.036 0.212c-0.164-0.667-0.608-1.207-1.196-1.498l-0.013-0.006-0.304-0.149-2.24-0.011c-1.755-0.009-2.289 0.004-2.467 0.061zM18.128 4.773c0.332 0.196 0.375 0.305 0.573 1.472 0.219 1.289 0.343 1.615 0.784 2.039 0.368 0.355 1.083 0.756 1.551 0.871 0.52 0.129 0.912 0.059 2.075-0.375 1.013-0.377 1.241-0.415 1.509-0.251 0.24 0.145 0.335 0.289 1.292 1.956 0.777 1.353 0.861 1.524 0.861 1.749-0 0.145-0.029 0.284-0.081 0.41l0.003-0.007c-0.044 0.084-0.464 0.469-0.933 0.856-1.256 1.031-1.408 1.303-1.408 2.507 0 1.201 0.149 1.467 1.419 2.516 0.465 0.383 0.88 0.765 0.924 0.848 0.049 0.118 0.077 0.255 0.077 0.399 0 0.001 0 0.002 0 0.002v-0c0 0.227-0.083 0.395-0.861 1.749-0.963 1.673-1.053 1.812-1.292 1.956-0.268 0.164-0.496 0.127-1.509-0.251-1.163-0.433-1.555-0.504-2.075-0.375-0.468 0.115-1.183 0.516-1.551 0.871-0.441 0.424-0.565 0.749-0.784 2.039-0.199 1.167-0.241 1.276-0.573 1.472-0.172 0.101-0.277 0.107-2.128 0.107-2.588 0-2.416 0.101-2.701-1.579-0.219-1.289-0.343-1.615-0.784-2.039-0.368-0.355-1.083-0.756-1.551-0.871-0.52-0.129-0.912-0.059-2.075 0.375-1.013 0.377-1.241 0.415-1.509 0.251-0.239-0.144-0.329-0.283-1.292-1.956-0.779-1.355-0.861-1.523-0.861-1.749 0-0.145 0.029-0.284 0.081-0.41l-0.003 0.007c0.044-0.084 0.457-0.464 0.92-0.844 1.265-1.041 1.421-1.317 1.421-2.519s-0.156-1.477-1.421-2.519c-0.463-0.38-0.876-0.76-0.92-0.844-0.050-0.119-0.078-0.258-0.079-0.403v-0c0-0.227 0.083-0.395 0.861-1.749 0.963-1.673 1.053-1.812 1.292-1.956 0.268-0.164 0.496-0.127 1.509 0.251 1.163 0.433 1.555 0.504 2.075 0.375 0.468-0.115 1.183-0.516 1.551-0.871 0.435-0.419 0.569-0.759 0.765-1.937 0.191-1.147 0.225-1.276 0.396-1.437 0.271-0.253 0.407-0.268 2.404-0.255 1.759 0.011 1.877 0.019 2.048 0.119zM15.013 11.448c-0.906 0.203-1.687 0.652-2.293 1.271l-0.001 0.001c-0.913 0.913-1.36 1.992-1.36 3.28s0.447 2.367 1.36 3.28 1.992 1.36 3.28 1.36 2.367-0.447 3.28-1.36 1.36-1.992 1.36-3.28-0.447-2.367-1.36-3.28c-0.614-0.631-1.409-1.082-2.301-1.271l-0.030-0.005c-0.511-0.104-1.435-0.103-1.936 0.004zM16.88 12.783c0.528 0.132 1.023 0.425 1.468 0.869 0.672 0.672 0.972 1.396 0.972 2.348s-0.3 1.676-0.972 2.348-1.396 0.972-2.348 0.972-1.676-0.3-2.348-0.972-0.972-1.396-0.972-2.348 0.3-1.676 0.972-2.348c0.873-0.873 1.997-1.176 3.228-0.869z"></path>
    </symbol>

    <symbol id="icon-eye" viewBox="0 0 32 32">
      <path d="M15.2 5.365c-3.635 0.235-6.871 1.659-9.432 4.151-1.489 1.458-2.67 3.225-3.441 5.197l-0.035 0.101c-0.396 1.048-0.396 1.327 0 2.373 1.623 4.293 5.276 7.661 9.637 8.887 1.484 0.417 2.496 0.555 4.071 0.555s2.587-0.137 4.071-0.555c4.355-1.223 7.968-4.548 9.615-8.847 0.421-1.101 0.424-1.352 0.023-2.413-1.257-3.228-3.514-5.837-6.384-7.507l-0.071-0.038c-1.545-0.898-3.355-1.532-5.285-1.789l-0.075-0.008c-0.599-0.079-2.164-0.14-2.693-0.105zM17.84 6.795c1.493 0.22 2.84 0.651 4.079 1.267l-0.079-0.035c2.666 1.318 4.777 3.421 6.071 6.003l0.035 0.077c0.381 0.776 0.748 1.703 0.748 1.889 0 0.373-0.899 2.315-1.496 3.231-2.16 3.315-5.557 5.453-9.544 6.008-0.292 0.040-0.993 0.071-1.653 0.071-1.631 0-2.751-0.177-4.24-0.672-3.324-1.104-6.14-3.565-7.708-6.74-0.371-0.749-0.745-1.703-0.745-1.895 0-0.183 0.373-1.125 0.748-1.892 1.098-2.19 2.703-3.982 4.668-5.273l0.051-0.031c1.604-1.047 3.717-1.813 5.573-2.025 0.279-0.032 0.579-0.068 0.667-0.080 0.337-0.047 2.317 0.021 2.827 0.097zM15.013 11.448c-0.906 0.203-1.687 0.652-2.293 1.271l-0.001 0.001c-0.913 0.913-1.36 1.992-1.36 3.28s0.447 2.367 1.36 3.28 1.992 1.36 3.28 1.36 2.367-0.447 3.28-1.36 1.36-1.992 1.36-3.28-0.447-2.367-1.36-3.28c-0.614-0.631-1.409-1.082-2.301-1.271l-0.030-0.005c-0.511-0.104-1.435-0.103-1.936 0.004zM16.88 12.783c0.528 0.132 1.023 0.425 1.468 0.869 0.672 0.672 0.972 1.396 0.972 2.348s-0.3 1.676-0.972 2.348-1.396 0.972-2.348 0.972-1.676-0.3-2.348-0.972-0.972-1.396-0.972-2.348 0.3-1.676 0.972-2.348c0.873-0.873 1.997-1.176 3.228-0.869z"></path>
    </symbol>

    <symbol id="icon-eye-slash" viewBox="0 0 32 32">
      <path d="M3.541 3.541c-0.161 0.161-0.181 0.213-0.181 0.467v0.285l24.347 24.347h0.285c0.253 0 0.305-0.020 0.467-0.181s0.181-0.213 0.181-0.465v-0.283l-1.957-1.96c-1.076-1.079-1.947-1.971-1.933-1.981 0.013-0.012 0.264-0.215 0.557-0.449 1.656-1.329 3.177-3.321 4.076-5.337 0.327-0.735 0.697-1.784 0.697-1.977 0-0.176-0.343-1.164-0.651-1.872-1.225-2.825-3.392-5.245-6.123-6.837-4.361-2.543-9.928-2.595-14.373-0.133l-0.533 0.296-4.109-4.099h-0.284c-0.252 0-0.304 0.020-0.465 0.181zM17.707 6.773c3.955 0.567 7.269 2.647 9.448 5.929 0.551 0.829 1.209 2.176 1.464 2.996l0.097 0.313-0.175 0.513c-0.219 0.641-0.744 1.741-1.151 2.408-0.756 1.239-2.045 2.693-3.143 3.544l-0.471 0.365-4.041-4.043 0.237-0.367c0.259-0.399 0.404-0.749 0.571-1.367 0.152-0.564 0.152-1.624-0.001-2.195-0.468-1.748-1.667-2.947-3.415-3.415-0.571-0.153-1.631-0.153-2.195-0.001-0.617 0.165-0.967 0.312-1.367 0.571l-0.367 0.236-1.904-1.901c-1.047-1.045-1.891-1.921-1.876-1.947 0.039-0.063 0.959-0.519 1.569-0.777 0.993-0.423 2.243-0.743 3.491-0.895 0.667-0.081 2.575-0.063 3.227 0.031zM5.039 10.365c-0.367 0.164-1.576 1.909-2.183 3.148-0.188 0.37-0.406 0.864-0.604 1.369l-0.045 0.131c-0.336 0.915-0.336 1.059 0 1.973 1.835 4.916 6.082 8.536 11.262 9.451l0.089 0.013c1.945 0.332 4.089 0.245 6.051-0.245 0.643-0.161 0.816-0.297 0.855-0.668 0.003-0.023 0.005-0.050 0.005-0.077 0-0.267-0.165-0.496-0.398-0.59l-0.004-0.002c-0.188-0.079-0.231-0.076-0.785 0.056-1.373 0.325-2.38 0.435-3.621 0.392-0.83-0.012-1.632-0.106-2.405-0.273l0.080 0.015c-3.408-0.669-6.508-2.771-8.477-5.743-0.563-0.851-1.217-2.189-1.475-3.015l-0.097-0.313 0.175-0.513c0.387-1.132 1.107-2.453 1.917-3.524 0.612-0.805 0.648-0.885 0.543-1.185-0.089-0.265-0.335-0.452-0.624-0.452-0.092 0-0.18 0.019-0.26 0.053l0.004-0.002zM16.821 12.745c0.608 0.156 1.097 0.436 1.548 0.885 0.839 0.839 1.172 2.016 0.888 3.128-0.103 0.397-0.396 1.055-0.471 1.055-0.052 0-4.6-4.548-4.6-4.599 0-0.073 0.651-0.369 1.033-0.469 0.24-0.063 0.516-0.099 0.801-0.099s0.56 0.036 0.823 0.104l-0.023-0.005z"></path>
    </symbol>

    <symbol id="icon-minus" viewBox="0 0 32 32">
      <path d="M7.748 15.039c-0.38 0.105-0.666 0.416-0.734 0.802l-0.001 0.006c-0.084 0.447 0.253 0.985 0.695 1.107 0.3 0.084 16.284 0.084 16.584 0 0.283-0.077 0.588-0.391 0.667-0.681 0.119-0.441-0.040-0.851-0.433-1.109l-0.224-0.149-8.191-0.008c-4.505-0.005-8.268 0.011-8.363 0.033z"></path>
    </symbol>

    <symbol id="icon-pencil" viewBox="0 0 32 32">
      <path d="M25.661 2.455c-0.266 0.075-0.496 0.167-0.713 0.282l0.020-0.010c-0.425 0.237-15.112 14.901-15.577 15.552-0.56 0.787-0.748 1.248-1.416 3.487-0.339 1.132-0.615 2.152-0.615 2.268 0 0.348 0.275 0.607 0.643 0.607 0.2 0 3.792-1.061 4.371-1.291 0.568-0.229 1.058-0.513 1.501-0.856l-0.014 0.011c0.244-0.183 3.375-3.279 7.827-7.739 5.791-5.801 7.456-7.499 7.587-7.733 0.331-0.592 0.464-1.504 0.321-2.189-0.277-1.218-1.219-2.16-2.416-2.433l-0.022-0.004c-0.189-0.034-0.406-0.053-0.627-0.053-0.308 0-0.608 0.037-0.894 0.108l0.026-0.005zM27.272 3.836c0.328 0.159 0.717 0.549 0.885 0.887 0.191 0.387 0.215 1.007 0.053 1.437-0.107 0.288-0.223 0.424-1.151 1.36l-1.031 1.040-2.589-2.589 1.040-1.031c1.224-1.215 1.32-1.272 2.081-1.244 0.343 0.012 0.516 0.047 0.711 0.14zM19.133 15.448c-6.339 6.333-6.247 6.248-7.151 6.625-0.453 0.188-2.912 0.935-2.952 0.896-0.039-0.040 0.708-2.499 0.896-2.952 0.377-0.904 0.292-0.812 6.624-7.151l5.928-5.933 2.589 2.587-5.935 5.928zM6.035 7.468c-0.624 0.164-1.092 0.443-1.608 0.959-0.523 0.523-0.796 0.988-0.961 1.629-0.103 0.404-0.105 0.607-0.105 7.944s0.003 7.54 0.105 7.944c0.165 0.641 0.439 1.107 0.961 1.629s0.988 0.796 1.629 0.961c0.404 0.103 0.607 0.105 7.944 0.105s7.54-0.003 7.944-0.105c0.641-0.165 1.107-0.439 1.629-0.961s0.796-0.988 0.961-1.629c0.1-0.393 0.105-0.597 0.105-3.984v-3.571l-0.181-0.181c-0.16-0.16-0.215-0.181-0.459-0.181s-0.299 0.021-0.459 0.181l-0.181 0.181-0.001 3.272c0 1.909-0.023 3.428-0.055 3.645-0.147 1.038-0.959 1.85-1.985 1.996l-0.012 0.001c-0.508 0.073-14.105 0.073-14.613 0-1.038-0.147-1.85-0.959-1.996-1.985l-0.001-0.012c-0.073-0.508-0.073-14.105 0-14.613 0.147-1.038 0.959-1.85 1.985-1.996l0.012-0.001c0.217-0.032 1.736-0.055 3.645-0.055l3.272-0.001 0.181-0.181c0.16-0.16 0.181-0.215 0.181-0.459s-0.021-0.299-0.181-0.459l-0.181-0.181-3.592 0.003c-3.367 0.003-3.616 0.009-3.984 0.105z"></path>
    </symbol>

    <symbol id="icon-plus-circle" viewBox="0 0 32 32">
      <path d="M14.533 3.423c-4.243 0.479-8.033 3.179-9.927 7.069-0.587 1.202-1.008 2.598-1.185 4.069l-0.006 0.063c-0.034 0.412-0.054 0.892-0.054 1.376s0.020 0.964 0.058 1.438l-0.004-0.062c0.503 4.4 3.191 8.075 6.937 9.951l0.073 0.033c1.22 0.604 2.639 1.036 4.134 1.218l0.063 0.006c0.285 0.031 0.904 0.056 1.376 0.056 1.48 0 2.649-0.188 4.024-0.645 3.77-1.287 6.684-4.202 7.944-7.883l0.026-0.089c0.41-1.152 0.646-2.481 0.646-3.866 0-0.055-0-0.11-0.001-0.165l0 0.008c0.001-0.047 0.001-0.102 0.001-0.157 0-1.384-0.237-2.713-0.672-3.949l0.026 0.083c-1.105-3.243-3.398-5.834-6.348-7.304l-0.073-0.033c-1.22-0.604-2.639-1.036-4.134-1.218l-0.063-0.006c-0.611-0.065-2.235-0.063-2.843 0.007zM17.573 4.779c2.447 0.349 4.592 1.438 6.251 3.030l-0.004-0.004c1.845 1.757 3.025 4.051 3.409 6.621 0.117 0.788 0.117 2.359 0 3.147-0.556 3.724-2.789 6.843-6.109 8.529-1.664 0.845-3.22 1.215-5.12 1.215s-3.456-0.369-5.12-1.215c-3.32-1.687-5.553-4.805-6.109-8.529-0.117-0.788-0.117-2.359 0-3.147 0.556-3.725 2.788-6.841 6.109-8.529 2.1-1.067 4.325-1.439 6.693-1.119zM15.561 11.516l-0.175 0.155-0.027 1.832-0.027 1.831-3.663 0.053-0.155 0.175c-0.128 0.143-0.156 0.221-0.156 0.439s0.028 0.296 0.156 0.439l0.155 0.175 3.663 0.053 0.027 1.831 0.027 1.832 0.175 0.155c0.143 0.128 0.221 0.156 0.439 0.156s0.296-0.028 0.439-0.156l0.175-0.155 0.027-1.832 0.027-1.831 3.663-0.053 0.155-0.175c0.128-0.143 0.156-0.221 0.156-0.439s-0.028-0.296-0.156-0.439l-0.155-0.175-3.663-0.053-0.027-1.831-0.027-1.832-0.175-0.155c-0.143-0.128-0.221-0.156-0.439-0.156s-0.296 0.028-0.439 0.156z"></path>
    </symbol>

    <symbol id="icon-plus" viewBox="0 0 32 32">
      <path d="M15.561 7.516l-0.175 0.155-0.027 3.832-0.027 3.831-7.663 0.053-0.155 0.175c-0.128 0.143-0.156 0.221-0.156 0.439s0.028 0.296 0.156 0.439l0.155 0.175 7.663 0.053 0.027 3.831 0.027 3.832 0.175 0.155c0.143 0.128 0.221 0.156 0.439 0.156s0.296-0.028 0.439-0.156l0.175-0.155 0.027-3.832 0.027-3.831 7.663-0.053 0.155-0.175c0.128-0.143 0.156-0.221 0.156-0.439s-0.028-0.296-0.156-0.439l-0.155-0.175-7.663-0.053-0.027-3.831-0.027-3.832-0.175-0.155c-0.143-0.128-0.221-0.156-0.439-0.156s-0.296 0.028-0.439 0.156z"></path>
    </symbol>

    <symbol id="icon-presentation" viewBox="0 0 32 32">
      <path d="M2.817 3.252c-0.505 0.154-0.738 0.723-0.472 1.158 0.18 0.296 0.37 0.358 1.161 0.38l0.706 0.020 0.029 14.896 0.145 0.428c0.354 1.036 1.099 1.86 2.054 2.309l0.024 0.010c0.545 0.254 1.018 0.32 2.321 0.32 0.895 0 1.142 0.014 1.123 0.066-0.014 0.037-0.402 1.202-0.865 2.59-0.923 2.774-0.914 2.729-0.608 3.078 0.133 0.161 0.334 0.263 0.558 0.263 0.070 0 0.137-0.010 0.201-0.028l-0.005 0.001c0.37-0.102 0.456-0.23 0.758-1.119l0.279-0.824h11.55l0.279 0.824c0.302 0.892 0.389 1.019 0.762 1.12 0.279 0.075 0.551-0.011 0.75-0.238 0.306-0.348 0.314-0.303-0.609-3.077-0.462-1.388-0.851-2.553-0.865-2.59-0.019-0.052 0.228-0.066 1.123-0.066 1.303 0 1.776-0.066 2.321-0.32 0.98-0.459 1.725-1.283 2.070-2.292l0.008-0.028 0.145-0.428 0.029-14.896 0.706-0.020c0.791-0.022 0.981-0.084 1.161-0.38 0.13-0.214 0.136-0.581 0.011-0.793-0.075-0.11-0.168-0.202-0.276-0.272l-0.004-0.002-0.186-0.117-13.12-0.009c-7.216-0.005-13.184 0.010-13.263 0.034zM26.226 12.12c-0.018 7.908 0 7.413-0.294 7.97-0.163 0.308-0.611 0.736-0.942 0.898-0.152 0.074-0.419 0.158-0.594 0.187-0.43 0.070-16.366 0.070-16.795 0-0.77-0.126-1.452-0.714-1.725-1.486-0.079-0.225-0.090-0.945-0.104-7.568l-0.017-7.32h20.486l-0.017 7.32zM19.704 8.286c-0.265 0.12-0.438 0.37-0.476 0.687-0.018 0.154-0.026 2.069-0.018 4.254 0.015 3.706 0.022 3.986 0.112 4.15 0.28 0.513 1.075 0.513 1.355 0 0.090-0.166 0.096-0.434 0.096-4.398 0-4.182-0.002-4.225-0.11-4.37-0.253-0.338-0.637-0.467-0.959-0.322zM15.76 11.282c-0.261 0.090-0.431 0.278-0.506 0.559-0.038 0.141-0.052 1.077-0.042 2.786 0.017 2.859 0.010 2.805 0.378 3.029 0.362 0.222 0.888 0.086 1.088-0.279 0.089-0.163 0.096-0.378 0.096-2.87 0-2.613-0.003-2.698-0.109-2.878-0.191-0.326-0.559-0.467-0.905-0.347zM11.606 14.342c-0.085 0.056-0.205 0.182-0.266 0.279-0.106 0.166-0.113 0.249-0.113 1.378 0 1.055 0.012 1.222 0.096 1.377 0.2 0.366 0.726 0.501 1.088 0.279 0.338-0.206 0.363-0.318 0.363-1.655 0-1.141-0.006-1.21-0.117-1.386-0.073-0.112-0.164-0.205-0.271-0.278l-0.003-0.002c-0.211-0.124-0.582-0.12-0.777 0.009zM20.835 23.973c0.215 0.645 0.391 1.19 0.391 1.213s-2.352 0.041-5.226 0.041c-2.874 0-5.226-0.018-5.226-0.041 0-0.034 0.682-2.109 0.771-2.346 0.020-0.054 0.941-0.065 4.462-0.054l4.437 0.014 0.391 1.173z"></path>
    </symbol>

    <symbol id="icon-trash" viewBox="0 0 32 32">
      <path d="M13.469 2.404c-1.204 0.139-2.215 0.864-2.796 2.008-0.188 0.371-0.28 0.805-0.317 1.508l-0.036 0.667-0.693 0.068c-1.778 0.185-3.165 0.37-4.541 0.588l0.488-0.064c-0.871 0.143-1.008 0.204-1.163 0.515-0.037 0.077-0.059 0.168-0.059 0.264 0 0.199 0.093 0.377 0.239 0.491l0.001 0.001c0.181 0.153 0.381 0.172 0.849 0.084 0.090-0.023 0.193-0.036 0.299-0.036 0.001 0 0.002 0 0.002 0h-0c0.009 0.011 0.331 4.084 0.712 9.053 0.739 9.605 0.723 9.452 1.047 10.092 0.439 0.867 1.275 1.572 2.205 1.86l0.4 0.124h11.787l0.4-0.124c0.964-0.316 1.74-0.98 2.195-1.839l0.010-0.021c0.324-0.64 0.308-0.487 1.047-10.092 0.381-4.969 0.703-9.044 0.715-9.055 0.007-0 0.016-0 0.024-0 0.082 0 0.161 0.013 0.235 0.037l-0.005-0.002c0.424 0.097 0.713 0.071 0.895-0.081 0.147-0.115 0.24-0.293 0.24-0.492 0-0.096-0.022-0.187-0.060-0.268l0.002 0.004c-0.155-0.311-0.292-0.372-1.163-0.515-0.888-0.154-2.275-0.339-3.672-0.49l-0.381-0.034-0.693-0.068-0.036-0.667c-0.037-0.703-0.129-1.137-0.317-1.508-0.595-1.168-1.583-1.864-2.849-2.009-0.553-0.064-4.459-0.063-5.008 0.001zM18.477 3.732c0.441 0.073 0.843 0.284 1.18 0.621 0.476 0.476 0.661 0.947 0.663 1.687v0.468l-0.2-0.028c-0.396-0.056-2.788-0.133-4.12-0.133s-3.724 0.077-4.12 0.133l-0.2 0.028v-0.468c0.001-0.74 0.187-1.211 0.663-1.687 0.321-0.321 0.745-0.552 1.132-0.617 0.372-0.063 4.625-0.065 5.003-0.004zM19.493 7.763c1.605 0.096 3.185 0.239 4.493 0.407l0.92 0.117-0.001 0.189c0 0.105-0.311 4.199-0.689 9.097-0.708 9.157-0.711 9.179-0.956 9.573-0.204 0.319-0.46 0.585-0.759 0.794l-0.009 0.006c-0.587 0.393-0.235 0.373-6.492 0.373s-5.905 0.020-6.492-0.373c-0.308-0.215-0.564-0.481-0.761-0.789l-0.007-0.011c-0.245-0.395-0.248-0.416-0.956-9.573-0.379-4.899-0.689-8.992-0.689-9.096l-0.001-0.191 0.893-0.115c1.129-0.151 2.641-0.296 4.165-0.395l0.222-0.012c1.657-0.103 5.423-0.104 7.12-0.003zM11.993 11.44c-0.096 0.065-0.173 0.153-0.225 0.255l-0.002 0.004c-0.081 0.172-0.071 0.585 0.151 6.32 0.193 4.999 0.252 6.165 0.317 6.291 0.113 0.22 0.311 0.331 0.589 0.331 0.003 0 0.006 0 0.010 0 0.289 0 0.531-0.199 0.596-0.468l0.001-0.004c0.020-0.097-0.068-2.904-0.195-6.239-0.183-4.76-0.248-6.097-0.308-6.225-0.147-0.311-0.608-0.441-0.935-0.264zM19.293 11.453c-0.093 0.065-0.167 0.15-0.219 0.248l-0.002 0.004c-0.059 0.127-0.127 1.488-0.308 6.224-0.127 3.335-0.215 6.141-0.195 6.239 0.112 0.552 0.933 0.649 1.196 0.141 0.065-0.125 0.124-1.292 0.317-6.291 0.221-5.739 0.232-6.148 0.151-6.32-0.153-0.321-0.62-0.443-0.94-0.245z"></path>
    </symbol>

    <symbol id="icon-user" viewBox="0 0 32 32">
      <path d="M15.013 0.031c-1.137 0.112-1.476 0.156-2.053 0.269-6.485 1.275-11.492 6.324-12.687 12.799-0.193 1.043-0.241 1.628-0.241 2.901s0.048 1.859 0.241 2.901c1.165 6.13 5.696 10.961 11.56 12.545l0.112 0.026c1.213 0.33 2.606 0.519 4.042 0.519 3.349 0 6.458-1.029 9.027-2.788l-0.055 0.035c3.55-2.412 6.048-6.145 6.791-10.478l0.013-0.094c0.672-3.932-0.191-8.093-2.361-11.396-2.539-3.851-6.608-6.516-11.322-7.131l-0.081-0.009c-0.615-0.079-2.544-0.143-2.987-0.1zM17.307 1.388c2.421 0.224 4.764 1.043 6.765 2.365 1.632 1.105 2.999 2.463 4.078 4.035l0.034 0.052c1.555 2.291 2.483 5.117 2.483 8.16s-0.928 5.869-2.516 8.211l0.033-0.051c-1.113 1.623-2.48 2.982-4.059 4.052l-0.053 0.034c-2.272 1.517-5.065 2.42-8.070 2.42-2.059 0-4.018-0.424-5.796-1.19l0.095 0.037c-3.53-1.527-6.288-4.284-7.778-7.719l-0.037-0.096c-1.717-4.1-1.517-8.608 0.559-12.576 1.077-2.060 2.871-4.033 4.873-5.365 1.9-1.259 4.177-2.106 6.63-2.361l0.064-0.005c0.409-0.031 0.885-0.049 1.366-0.049 0.467 0 0.931 0.017 1.389 0.050l-0.062-0.004zM15.051 4.775c-1.624 0.352-2.909 1.523-3.468 3.153-0.153 0.449-0.221 0.913-0.223 1.516-0.001 1.38 0.499 2.539 1.507 3.497 0.818 0.774 1.925 1.25 3.143 1.25 0.59 0 1.154-0.112 1.672-0.315l-0.031 0.011c1.021-0.384 1.988-1.271 2.503-2.297 0.539-1.075 0.639-2.545 0.249-3.687-0.551-1.62-1.843-2.784-3.476-3.129-0.455-0.097-1.428-0.096-1.876 0.001zM16.773 6.088c0.491 0.104 1.001 0.391 1.448 0.812 0.747 0.703 1.092 1.484 1.097 2.487 0.007 1.036-0.287 1.771-0.993 2.484-0.683 0.689-1.377 0.983-2.325 0.983-0.955 0-1.608-0.273-2.295-0.96-0.743-0.741-1.021-1.411-1.021-2.453-0.001-0.512 0.021-0.684 0.136-1.040 0.179-0.559 0.44-0.987 0.865-1.416 0.837-0.849 1.883-1.152 3.088-0.896zM14.793 16.243c-2.583 0.377-4.813 1.884-6.192 4.184-0.689 1.144-1.134 2.508-1.227 3.967l-0.001 0.026c-0.044 0.879-0.033 0.893 0.92 1.315 1.556 0.687 3.336 1.173 5.307 1.449 0.953 0.133 3.844 0.135 4.8 0 2.176-0.304 4.089-0.859 5.845-1.695 0.355-0.169 0.417-0.345 0.381-1.069-0.095-1.485-0.54-2.849-1.253-4.033l0.022 0.040c-1.178-1.974-3.061-3.424-5.294-4.012l-0.061-0.014c-0.932-0.235-2.277-0.3-3.248-0.159zM17.155 17.573c2.213 0.359 4.22 1.828 5.301 3.883 0.431 0.819 0.74 1.824 0.833 2.708 0.017 0.173 0.023 0.316 0.009 0.316s-0.255 0.095-0.537 0.209c-4.255 1.739-9.268 1.739-13.523 0-0.107-0.049-0.285-0.12-0.465-0.186l-0.073-0.023c-0.037 0 0.036-0.597 0.128-1.049 0.32-1.568 1.173-3.029 2.42-4.148 0.955-0.855 2.26-1.479 3.577-1.708 0.553-0.097 1.737-0.097 2.328-0.001z"></path>
    </symbol>

    <symbol id="icon-wrench" viewBox="0 0 32 32">
      <path d="M4.614 2.341c-0.294 0.185-2.31 2.263-2.35 2.422-0.089 0.358-0.011 0.513 1.584 3.166 1.207 2.008 1.606 2.63 1.746 2.724 0.17 0.113 0.236 0.121 1.067 0.121h0.886l2.306 2.306c1.269 1.269 2.306 2.324 2.306 2.344s-1.956 1.647-4.346 3.615c-4.879 4.018-4.866 4.005-5.283 5.032-0.419 1.032-0.37 2.386 0.122 3.369 0.526 1.028 1.427 1.802 2.517 2.15l0.030 0.008c0.58 0.182 1.573 0.21 2.162 0.061 0.641-0.161 1.35-0.533 1.793-0.938 0.202-0.184 1.662-1.91 3.246-3.834l2.879-3.499 3.734 3.727c3.914 3.907 4.053 4.033 4.825 4.346 0.823 0.334 2.040 0.393 2.856 0.137 1.405-0.442 2.468-1.511 2.915-2.934 0.107-0.342 0.125-0.507 0.125-1.198s-0.018-0.854-0.126-1.198c-0.157-0.499-0.374-0.933-0.647-1.324l0.010 0.016c-0.104-0.146-1.751-1.835-3.66-3.751l-3.471-3.486 0.64 0.037c1.937 0.11 3.763-0.527 5.096-1.776 1.027-0.962 1.658-2.019 2.008-3.369 0.179-0.69 0.229-1.985 0.102-2.707-0.1-0.574-0.354-1.39-0.527-1.693-0.222-0.39-0.599-0.542-0.982-0.399-0.082 0.031-1.090 0.994-2.238 2.14l-2.087 2.083-0.317-0.169c-0.601-0.324-1.082-0.805-1.398-1.388l-0.009-0.018-0.169-0.317 2.084-2.087c1.146-1.147 2.11-2.154 2.14-2.237 0.143-0.384-0.011-0.762-0.399-0.981-0.116-0.066-0.439-0.192-0.718-0.282-1.642-0.526-3.451-0.409-4.96 0.322-1.924 0.931-3.263 2.623-3.736 4.718-0.108 0.478-0.121 0.69-0.13 2.054-0.008 1.376-0.020 1.555-0.122 1.894-0.111 0.369-0.361 0.879-0.43 0.879-0.020 0-1.133-1.098-2.473-2.44l-2.438-2.44-0.016-0.906c-0.014-0.83-0.026-0.92-0.131-1.069-0.078-0.109-0.925-0.646-2.614-1.66 0.038-0.016-0.833-0.54-1.709-1.059l-0.959-0.526c-0.227-0.115-0.539-0.109-0.736 0.014zM23.942 3.864c0.050 0.030-0.466 0.58-1.746 1.862-2.038 2.045-1.966 1.942-1.798 2.556 0.132 0.482 0.514 1.235 0.843 1.664 0.506 0.659 1.248 1.201 2.086 1.525 0.546 0.211 0.866 0.25 1.094 0.131 0.095-0.049 0.956-0.881 1.912-1.848 0.969-0.98 1.758-1.738 1.783-1.712 0.083 0.083 0.116 1.258 0.048 1.7-0.347 2.243-1.967 3.932-4.218 4.397-0.176 0.036-0.781 0.058-1.519 0.053-1.372-0.009-1.857 0.043-2.561 0.271-0.527 0.164-0.985 0.411-1.384 0.729l0.008-0.007c-0.226 0.174-1.631 1.842-5.26 6.249-2.723 3.306-5.029 6.077-5.122 6.156-0.819 0.689-2.018 0.817-2.958 0.315-0.149-0.080-0.416-0.289-0.594-0.465-0.939-0.929-1.026-2.41-0.203-3.466 0.085-0.109 2.846-2.416 6.137-5.127s6.107-5.067 6.258-5.236c0.34-0.378 0.754-1.208 0.912-1.826 0.103-0.401 0.118-0.624 0.134-1.946 0.018-1.592 0.061-1.941 0.32-2.64 0.652-1.71 2.121-2.975 3.917-3.327l0.033-0.005c0.437-0.082 1.746-0.086 1.878-0.004zM7.174 5.216l2.026 1.216 0.013 0.77c0.007 0.424 0.026 0.831 0.043 0.904 0.019 0.083 1.026 1.13 2.653 2.76 2.262 2.265 2.611 2.636 2.543 2.698-0.266 0.244-1.006 0.836-1.046 0.836-0.026 0-1.174-1.13-2.554-2.512-1.418-1.422-2.581-2.544-2.678-2.586-0.121-0.053-0.405-0.075-0.96-0.077l-0.789-0.002-1.2-2.006c-0.050-0.037-0.454-0.709-0.852-1.384l-0.367-0.673c-0.018-0.047 1.048-1.16 1.112-1.16 0.015 0 0.939 0.547 2.054 1.216zM23.871 19.96c4.158 4.171 4.080 4.082 4.26 4.845 0.152 0.646 0.071 1.358-0.218 1.929-0.19 0.376-0.757 0.951-1.135 1.153-0.915 0.488-2.074 0.415-2.911-0.183-0.176-0.126-1.957-1.869-3.958-3.873l-3.639-3.644 1.49-1.813c1.447-1.762 1.934-2.267 2.182-2.267 0.050 0 1.818 1.734 3.93 3.854zM20.718 20.288c-0.363 0.158-0.573 0.596-0.456 0.95 0.041 0.125 0.628 0.746 1.965 2.080 1.682 1.676 1.931 1.906 2.112 1.939 0.431 0.078 0.843-0.189 0.92-0.597 0.077-0.41 0.034-0.465-1.963-2.457-1.035-1.033-1.95-1.902-2.032-1.934-0.196-0.074-0.346-0.068-0.546 0.018zM6.096 24.851c-0.445 0.271-0.514 0.834-0.147 1.2 0.328 0.329 0.824 0.306 1.139-0.054 0.14-0.159 0.166-0.231 0.165-0.466 0-0.312-0.109-0.522-0.354-0.683-0.202-0.134-0.582-0.132-0.803 0.003z"></path>
    </symbol>

    <symbol id="icon-x" viewBox="0 0 32 32">
      <path d="M7.6 7.116c-0.476 0.212-0.688 0.791-0.477 1.299 0.057 0.139 1.209 1.327 3.787 3.905l3.703 3.708-3.711 3.705c-2.14 2.137-3.744 3.78-3.787 3.879-0.045 0.115-0.072 0.248-0.075 0.387l-0 0.001c0 0.708 0.703 1.157 1.375 0.877 0.139-0.057 1.323-1.205 3.892-3.772l3.693-3.691 3.693 3.691c2.569 2.567 3.753 3.715 3.892 3.772 0.675 0.28 1.375-0.169 1.375-0.883-0.003-0.138-0.030-0.269-0.077-0.39l0.003 0.008c-0.043-0.099-1.647-1.741-3.787-3.879l-3.711-3.705 3.703-3.708c2.577-2.579 3.729-3.767 3.787-3.905 0.279-0.669-0.169-1.375-0.872-1.375-0.129 0.001-0.253 0.021-0.37 0.058l0.009-0.002c-0.084 0.031-1.805 1.708-3.897 3.8l-3.747 3.744-3.747-3.744c-2.092-2.092-3.813-3.769-3.897-3.8-0.104-0.033-0.224-0.052-0.348-0.052-0.146 0-0.287 0.026-0.416 0.074l0.008-0.003z"></path>
    </symbol>

    <symbol id="icon-circle" viewBox="0 0 8 8">
      <circle cx="4" cy="4" r="4" />
    </symbol>

    <symbol id="icon-glass" viewBox="0 0 32 32">
      <path d="M5.564 2.782l1.902 26.364v0.071h16.366l1.901-26.352v-0.084h-20.17zM23.161 28.48h-15.017l-1.426-19.748h0.783l1.289 17.403c0.009 0.092 0.049 0.177 0.116 0.24s0.154 0.098 0.244 0.098h0.030c0.099-0.007 0.186-0.054 0.246-0.124l0-0c0.055-0.063 0.088-0.147 0.088-0.238 0-0.010-0-0.019-0.001-0.029l0 0.001-1.289-17.351h16.362l-1.427 19.747zM24.637 7.995h-16.468l-0.283-3.847c-0.009-0.097-0.054-0.182-0.121-0.243l-0-0c-0.065-0.058-0.151-0.094-0.245-0.094-0.003 0-0.005 0-0.008 0h0c-0.099 0.010-0.186 0.057-0.246 0.128l-0 0.001c-0.055 0.065-0.089 0.15-0.089 0.243 0 0.008 0 0.016 0.001 0.024l-0-0.001 0.284 3.796h-0.795l-0.324-4.483h18.617l-0.324 4.477z"></path>
      <path d="M11.36 12.384c0.236 0 0.467-0.071 0.662-0.204s0.349-0.322 0.44-0.542c0.057-0.137 0.091-0.296 0.091-0.463 0-0.334-0.133-0.636-0.35-0.857l0 0c-0.214-0.219-0.512-0.355-0.842-0.355-0.165 0-0.323 0.034-0.466 0.096l0.008-0.003c-0.223 0.095-0.405 0.249-0.533 0.442l-0.003 0.004c-0.126 0.189-0.201 0.422-0.201 0.672 0 0.334 0.134 0.636 0.35 0.857l-0-0c0.224 0.227 0.527 0.354 0.844 0.354zM11.36 10.697c0 0 0 0 0.001 0 0.195 0 0.363 0.12 0.432 0.291l0.001 0.003c0.023 0.054 0.036 0.117 0.036 0.182 0 0.132-0.053 0.251-0.138 0.338l0-0c-0.085 0.087-0.203 0.14-0.334 0.14-0.259 0-0.468-0.21-0.468-0.468 0-0.003 0-0.007 0-0.010v0.001c0-0 0-0.001 0-0.001 0-0.131 0.053-0.25 0.138-0.337l-0 0c0.089-0.089 0.208-0.139 0.332-0.139zM11.355 16.318c0.003 0.239 0.076 0.471 0.208 0.668s0.321 0.35 0.54 0.439c0.132 0.056 0.285 0.088 0.446 0.088 0.334 0 0.635-0.139 0.849-0.362l0-0c0.212-0.22 0.342-0.52 0.342-0.85 0-0.169-0.034-0.331-0.096-0.477l0.003 0.008c-0.094-0.223-0.246-0.407-0.438-0.537l-0.004-0.003c-0.185-0.125-0.412-0.2-0.658-0.2-0.334 0-0.636 0.139-0.85 0.361l-0 0c-0.212 0.218-0.343 0.517-0.343 0.846 0 0.006 0 0.013 0 0.019v-0.001zM13.012 16.318c-0.001 0.196-0.118 0.365-0.287 0.44l-0.003 0.001c-0.053 0.023-0.115 0.036-0.18 0.036-0.13 0-0.248-0.054-0.332-0.14l-0-0c-0.084-0.086-0.136-0.204-0.136-0.334 0-0.261 0.208-0.473 0.467-0.48h0.001c0.124 0 0.244 0.051 0.332 0.14s0.138 0.211 0.138 0.338zM19.834 16.348c0.236 0 0.467-0.071 0.662-0.204s0.349-0.321 0.44-0.542c0.057-0.137 0.090-0.296 0.090-0.462 0-0.334-0.133-0.636-0.349-0.857l0 0c-0.214-0.219-0.512-0.355-0.843-0.355-0.165 0-0.323 0.034-0.465 0.096l0.008-0.003c-0.223 0.095-0.405 0.248-0.533 0.441l-0.003 0.004c-0.126 0.189-0.201 0.422-0.201 0.672 0 0.334 0.134 0.636 0.35 0.857l-0-0c0.224 0.227 0.528 0.354 0.844 0.354zM19.834 14.667c0 0 0.001 0 0.001 0 0.196 0 0.363 0.121 0.432 0.292l0.001 0.003c0.022 0.054 0.035 0.116 0.035 0.181 0 0.132-0.053 0.252-0.139 0.34l0-0c-0.085 0.086-0.203 0.139-0.333 0.139-0.259 0-0.468-0.21-0.468-0.468 0-0.005 0-0.010 0-0.015l-0 0.001c0.001-0.131 0.054-0.248 0.14-0.334l-0 0c0.084-0.085 0.201-0.138 0.331-0.138h0zM15.677 14.067c0.236 0 0.467-0.071 0.663-0.204s0.348-0.322 0.439-0.542c0.058-0.137 0.091-0.296 0.091-0.463 0-0.333-0.133-0.636-0.349-0.857l0 0c-0.214-0.219-0.512-0.355-0.842-0.355-0.165 0-0.323 0.034-0.466 0.096l0.008-0.003c-0.223 0.095-0.405 0.248-0.533 0.441l-0.003 0.004c-0.126 0.189-0.201 0.422-0.201 0.672 0 0.334 0.134 0.636 0.35 0.857l-0-0c0.223 0.227 0.527 0.355 0.844 0.355zM15.677 12.379c0.001 0 0.001 0 0.002 0 0.196 0 0.363 0.121 0.432 0.292l0.001 0.003c0.022 0.054 0.035 0.116 0.035 0.181 0 0.131-0.052 0.251-0.138 0.338l0-0c-0.085 0.086-0.203 0.139-0.334 0.139-0.065 0-0.126-0.013-0.182-0.037l0.003 0.001c-0.172-0.073-0.29-0.24-0.29-0.435 0-0.002 0-0.004 0-0.006v0c-0-0.007-0.001-0.016-0.001-0.025 0-0.127 0.049-0.243 0.129-0.329l-0 0c0.086-0.091 0.207-0.148 0.342-0.148v0 0.025zM13.402 20.929c0.005 0.196 0.067 0.388 0.178 0.548s0.268 0.285 0.448 0.357c0.107 0.044 0.231 0.070 0.361 0.070 0.277 0 0.528-0.116 0.705-0.302l0-0c0.174-0.18 0.281-0.426 0.281-0.697 0-0.141-0.029-0.275-0.082-0.397l0.002 0.007c-0.078-0.184-0.203-0.335-0.36-0.442l-0.003-0.002c-0.153-0.104-0.342-0.167-0.545-0.167h-0c-0.275 0.008-0.522 0.125-0.698 0.309l-0 0c-0.178 0.185-0.287 0.437-0.287 0.715 0 0.001 0 0.001 0 0.002v-0zM14.388 20.662c0 0 0 0 0.001 0 0.109 0 0.203 0.067 0.241 0.163l0.001 0.002c0.012 0.030 0.020 0.065 0.020 0.101 0 0.074-0.030 0.141-0.078 0.189l0-0c-0.047 0.048-0.113 0.077-0.186 0.077-0.145 0-0.262-0.117-0.262-0.262 0-0.001 0-0.002 0-0.004v0c0-0.071 0.027-0.139 0.076-0.188 0.047-0.048 0.113-0.078 0.186-0.078 0 0 0 0 0 0v0zM18.17 19.816c0.203 0.007 0.403-0.047 0.574-0.157s0.307-0.268 0.388-0.457c0.053-0.121 0.084-0.262 0.084-0.41 0-0.281-0.111-0.536-0.292-0.723l0 0c-0.183-0.187-0.438-0.303-0.72-0.303-0.143 0-0.278 0.030-0.401 0.083l0.006-0.003c-0.187 0.080-0.344 0.216-0.453 0.388-0.101 0.157-0.161 0.349-0.161 0.555 0 0.28 0.111 0.535 0.292 0.721l-0-0c0.181 0.187 0.427 0.295 0.684 0.304zM18.17 18.549c0.070 0 0.137 0.028 0.187 0.078 0.048 0.049 0.077 0.115 0.077 0.188s-0.029 0.14-0.077 0.189l0-0c-0.047 0.048-0.114 0.078-0.187 0.078s-0.139-0.030-0.187-0.078l-0-0c-0.049-0.048-0.079-0.115-0.081-0.188v-0c0-0.074 0.030-0.141 0.079-0.19v0c0.047-0.047 0.112-0.076 0.184-0.076 0.001 0 0.003 0 0.004 0h-0zM20.253 11.538c0.2 0 0.396-0.060 0.562-0.172 0.271-0.19 0.447-0.502 0.447-0.854 0-0.282-0.112-0.537-0.294-0.725l0 0c-0.183-0.185-0.436-0.299-0.716-0.299-0.139 0-0.272 0.028-0.393 0.080l0.007-0.002c-0.188 0.081-0.343 0.211-0.451 0.374l-0.002 0.004c-0.107 0.16-0.171 0.358-0.171 0.57 0 0.282 0.113 0.538 0.296 0.725l-0-0c0.189 0.192 0.447 0.3 0.716 0.3zM20.253 10.271c0.022-0.006 0.046-0.010 0.072-0.010 0.103 0 0.192 0.060 0.235 0.146l0.001 0.002c0.017 0.034 0.027 0.075 0.027 0.118 0 0.087-0.041 0.164-0.104 0.213l-0.001 0c-0.044 0.034-0.099 0.054-0.159 0.054-0.026 0-0.051-0.004-0.074-0.011l0.002 0c-0.021 0.006-0.046 0.010-0.071 0.010-0.060 0-0.115-0.021-0.159-0.055l0.001 0c-0.064-0.049-0.104-0.126-0.104-0.211 0-0 0-0.001 0-0.001v0c0-0 0-0 0-0 0-0.086 0.040-0.163 0.103-0.213l0.001-0c0.043-0.033 0.098-0.053 0.158-0.053 0.026 0 0.051 0.004 0.075 0.011l-0.002-0zM10.368 27.191c-0.092 0.044-0.161 0.122-0.192 0.217l-0.001 0.003c-0.012 0.034-0.018 0.074-0.018 0.115 0 0.065 0.017 0.126 0.046 0.18l-0.001-0.002c0.063 0.118 0.184 0.197 0.323 0.2h0c0.003 0 0.006 0 0.010 0 0.055 0 0.108-0.013 0.154-0.037l-0.002 0.001c1.448-0.769 3.165-1.224 4.988-1.231h0.002c1.836 0.027 3.648 0.441 5.319 1.216 0.049 0.026 0.107 0.042 0.169 0.042 0.095 0 0.181-0.037 0.245-0.096l-0 0c0.074-0.068 0.12-0.165 0.12-0.273 0-0.050-0.010-0.098-0.028-0.142l0.001 0.002c-0.036-0.091-0.104-0.163-0.19-0.204l-0.002-0.001c-1.651-0.785-3.584-1.255-5.623-1.283l-0.009-0c-1.845 0.002-3.664 0.444-5.309 1.292z"></path>
    </symbol>

  </defs>
</svg>
